{
	"asset":{
		"generator":"Khronos glTF Blender I/O v4.0.44",
		"version":"2.0"
	},
	"scene":0,
	"scenes":[
		{
			"name":"Scene",
			"nodes":[
				0,
				1
			]
		}
	],
	"nodes":[
		{
			"mesh":0,
			"name":"Stem",
			"translation":[
				0,
				-10,
				0
			]
		},
		{
			"mesh":1,
			"name":"Leaf",
			"translation":[
				0,
				-10,
				-0.20000000298023224
			]
		}
	],
	"materials":[
		{
			"name":"IvyLeaf",
			"normalTexture":{
				"index":0
			},
			"pbrMetallicRoughness":{
				"baseColorTexture":{
					"index":1
				},
				"metallicFactor":0,
				"metallicRoughnessTexture":{
					"index":2
				}
			}
		}
	],
	"meshes":[
		{
			"name":"Stem",
			"primitives":[
				{
					"attributes":{
						"POSITION":0,
						"NORMAL":1,
						"TEXCOORD_0":2,
						"TANGENT":3
					},
					"indices":4,
					"material":0
				}
			]
		},
		{
			"name":"Leaf",
			"primitives":[
				{
					"attributes":{
						"POSITION":5,
						"NORMAL":6,
						"TEXCOORD_0":7,
						"TANGENT":8
					},
					"indices":9,
					"material":0
				}
			]
		}
	],
	"textures":[
		{
			"sampler":0,
			"source":0
		},
		{
			"sampler":0,
			"source":1
		},
		{
			"sampler":0,
			"source":2
		}
	],
	"images":[
		{
			"mimeType":"image/png",
			"name":"IvyLeaf_Normal_cropped",
			"uri":"IvyLeaf_Normal_cropped.png"
		},
		{
			"mimeType":"image/png",
			"name":"IvyLeaf_BaseColor_cropped",
			"uri":"IvyLeaf_BaseColor_cropped.png"
		},
		{
			"mimeType":"image/png",
			"name":"IvyLeaf_Roughness0_cropped",
			"uri":"IvyLeaf_Roughness0_cropped.png"
		}
	],
	"accessors":[
		{
			"bufferView":0,
			"componentType":5126,
			"count":134,
			"max":[
				0.2000006139278412,
				0.009998023509979248,
				0.009998082183301449
			],
			"min":[
				5.718320608139038e-07,
				-0.010002002120018005,
				-0.010001896880567074
			],
			"type":"VEC3"
		},
		{
			"bufferView":1,
			"componentType":5126,
			"count":134,
			"type":"VEC3"
		},
		{
			"bufferView":2,
			"componentType":5126,
			"count":134,
			"type":"VEC2"
		},
		{
			"bufferView":3,
			"componentType":5126,
			"count":134,
			"type":"VEC4"
		},
		{
			"bufferView":4,
			"componentType":5123,
			"count":372,
			"type":"SCALAR"
		},
		{
			"bufferView":5,
			"componentType":5126,
			"count":118,
			"max":[
				0.2985817790031433,
				0.006755247712135315,
				0.11599817872047424
			],
			"min":[
				-0.0009668129496276379,
				-0.010421102866530418,
				-0.138031005859375
			],
			"type":"VEC3"
		},
		{
			"bufferView":6,
			"componentType":5126,
			"count":118,
			"type":"VEC3"
		},
		{
			"bufferView":7,
			"componentType":5126,
			"count":118,
			"type":"VEC2"
		},
		{
			"bufferView":8,
			"componentType":5126,
			"count":118,
			"type":"VEC4"
		},
		{
			"bufferView":9,
			"componentType":5123,
			"count":444,
			"type":"SCALAR"
		}
	],
	"bufferViews":[
		{
			"buffer":0,
			"byteLength":1608,
			"byteOffset":0,
			"target":34962
		},
		{
			"buffer":0,
			"byteLength":1608,
			"byteOffset":1608,
			"target":34962
		},
		{
			"buffer":0,
			"byteLength":1072,
			"byteOffset":3216,
			"target":34962
		},
		{
			"buffer":0,
			"byteLength":2144,
			"byteOffset":4288,
			"target":34962
		},
		{
			"buffer":0,
			"byteLength":744,
			"byteOffset":6432,
			"target":34963
		},
		{
			"buffer":0,
			"byteLength":1416,
			"byteOffset":7176,
			"target":34962
		},
		{
			"buffer":0,
			"byteLength":1416,
			"byteOffset":8592,
			"target":34962
		},
		{
			"buffer":0,
			"byteLength":944,
			"byteOffset":10008,
			"target":34962
		},
		{
			"buffer":0,
			"byteLength":1888,
			"byteOffset":10952,
			"target":34962
		},
		{
			"buffer":0,
			"byteLength":888,
			"byteOffset":12840,
			"target":34963
		}
	],
	"samplers":[
		{
			"magFilter":9729,
			"minFilter":9987
		}
	],
	"buffers":[
		{
			"byteLength":13728,
			"uri":"ivy.bin"
		}
	]
}
